<svg width="22" height="18" viewBox="0 0 22 18" fill="none" xmlns="http://www.w3.org/2000/svg">
<path d="M16.5075 0C14.5566 0 12.4557 0.42443 11.005 1.59161C9.55434 0.42443 7.45339 0 5.5025 0C4.05184 0 2.51114 0.233436 1.22055 0.838249C0.490223 1.1884 0 1.94177 0 2.80124V14.7702C0 16.1495 1.22055 17.1682 2.48113 16.8286C3.46157 16.5634 4.50205 16.4467 5.5025 16.4467C7.06321 16.4467 8.72397 16.7225 10.0646 17.4228C10.6648 17.7412 11.3452 17.7412 11.9354 17.4228C13.276 16.7119 14.9368 16.4467 16.4975 16.4467C17.498 16.4467 18.5384 16.5634 19.5189 16.8286C20.7794 17.1788 22 16.1602 22 14.7702V2.80124C22 1.94177 21.5098 1.1884 20.7794 0.838249C19.4989 0.233436 17.9582 0 16.5075 0ZM20.0091 13.5075C20.0091 14.176 19.4288 14.664 18.8085 14.5473C18.0582 14.3988 17.2779 14.3351 16.5075 14.3351C14.8067 14.3351 12.3556 15.0248 11.005 15.9267V3.71376C12.3556 2.81185 14.8067 2.12215 16.5075 2.12215C17.4279 2.12215 18.3383 2.21765 19.2087 2.41925C19.6689 2.52536 20.0091 2.9604 20.0091 3.4591V13.5075Z" fill="url(#paint0_linear_23_244)"/>
<path d="M12.986 6.90687C12.6658 6.90687 12.3757 6.69472 12.2756 6.35528C12.1456 5.94159 12.3657 5.48547 12.7559 5.35818C14.2966 4.8278 16.2875 4.65808 18.1183 4.88084C18.5285 4.93388 18.8286 5.32636 18.7786 5.76126C18.7286 6.19617 18.3584 6.5144 17.9482 6.46136C16.3275 6.25982 14.5567 6.41893 13.2161 6.87505C13.136 6.88566 13.056 6.90687 12.986 6.90687Z" fill="url(#paint1_linear_23_244)"/>
<path d="M12.986 9.72938C12.6658 9.72938 12.3757 9.51723 12.2756 9.17779C12.1456 8.7641 12.3657 8.30798 12.7559 8.18069C14.2865 7.65031 16.2875 7.48059 18.1183 7.70335C18.5285 7.75639 18.8286 8.14887 18.7786 8.58377C18.7286 9.01868 18.3584 9.33691 17.9482 9.28387C16.3275 9.08233 14.5567 9.24144 13.2161 9.69756C13.136 9.71878 13.056 9.72938 12.986 9.72938Z" fill="url(#paint2_linear_23_244)"/>
<path d="M12.986 12.5519C12.6658 12.5519 12.3757 12.3397 12.2756 12.0003C12.1456 11.5866 12.3657 11.1305 12.7559 11.0032C14.2865 10.4728 16.2875 10.3031 18.1183 10.5259C18.5285 10.5789 18.8286 10.9714 18.7786 11.4063C18.7286 11.8412 18.3584 12.1488 17.9482 12.1064C16.3275 11.9048 14.5567 12.0639 13.2161 12.5201C13.136 12.5413 13.056 12.5519 12.986 12.5519Z" fill="url(#paint3_linear_23_244)"/>
<defs>
<linearGradient id="paint0_linear_23_244" x1="11" y1="0" x2="11" y2="17.6616" gradientUnits="userSpaceOnUse">
<stop stop-color="#5AD7FE"/>
<stop offset="0.229167" stop-color="#1EB2E1"/>
<stop offset="1" stop-color="#3F18DD"/>
</linearGradient>
<linearGradient id="paint1_linear_23_244" x1="15.5111" y1="4.78528" x2="15.5111" y2="6.90687" gradientUnits="userSpaceOnUse">
<stop stop-color="#5AD7FE"/>
<stop offset="0.229167" stop-color="#1EB2E1"/>
<stop offset="1" stop-color="#3F18DD"/>
</linearGradient>
<linearGradient id="paint2_linear_23_244" x1="15.5111" y1="7.60779" x2="15.5111" y2="9.72938" gradientUnits="userSpaceOnUse">
<stop stop-color="#5AD7FE"/>
<stop offset="0.229167" stop-color="#1EB2E1"/>
<stop offset="1" stop-color="#3F18DD"/>
</linearGradient>
<linearGradient id="paint3_linear_23_244" x1="15.5111" y1="10.4303" x2="15.5111" y2="12.5519" gradientUnits="userSpaceOnUse">
<stop stop-color="#5AD7FE"/>
<stop offset="0.229167" stop-color="#1EB2E1"/>
<stop offset="1" stop-color="#3F18DD"/>
</linearGradient>
</defs>
</svg>
