<svg width="101" height="129" viewBox="0 0 101 129" fill="none" xmlns="http://www.w3.org/2000/svg">
<path d="M2.98271 85.5599C2.59219 85.1694 2.59219 84.5362 2.98271 84.1457L86.4213 0.707108C86.8118 0.316584 87.445 0.316584 87.8355 0.707109L100.563 13.435C100.954 13.8256 100.954 14.4587 100.563 14.8492L17.1248 98.2878C16.7343 98.6784 16.1012 98.6784 15.7106 98.2878L2.98271 85.5599Z" fill="#2C67FF"/>
<path d="M0.707078 115.529C0.316554 115.138 0.316553 114.505 0.707078 114.114L84.1457 30.6759C84.5362 30.2853 85.1694 30.2853 85.5599 30.6759L98.2878 43.4038C98.6783 43.7943 98.6783 44.4275 98.2878 44.818L14.8492 128.257C14.4587 128.647 13.8255 128.647 13.435 128.257L0.707078 115.529Z" fill="url(#paint0_linear_40_8)"/>
<defs>
<linearGradient id="paint0_linear_40_8" x1="7.07107" y1="121.893" x2="91.9239" y2="37.0398" gradientUnits="userSpaceOnUse">
<stop stop-color="#81C2FF"/>
<stop offset="1" stop-color="#1F7FD8"/>
</linearGradient>
</defs>
</svg>
